<?xml version="1.0" encoding="utf-8"?>
<!-- Generator: Adobe Illustrator 26.0.0, SVG Export Plug-In . SVG Version: 6.00 Build 0)  -->
<svg version="1.1" id="Capa_1" xmlns="http://www.w3.org/2000/svg" xmlns:xlink="http://www.w3.org/1999/xlink" x="0px" y="0px"
	 viewBox="0 0 599 391" style="enable-background:new 0 0 599 391;" xml:space="preserve">
<style type="text/css">
	.st0{fill:#C8E4F7;}
	.st1{fill:#BBBBBB;}
	.st2{fill:#0D0D0D;}
	.st3{fill:#C1C1C2;}
	.st4{fill:#BFC0C0;}
	.st5{fill:#B8B8B9;}
	.st6{fill:#CAE2F3;}
	.st7{fill:#1B1B1B;}
	.st8{fill:#191A1A;}
	.st9{fill:#C9E2F3;}
	.st10{fill:#252525;}
	.st11{fill:#CBE5F6;}
	.st12{fill:#BFC1C2;}
	.st13{fill:#1F2122;}
	.st14{fill:#364955;}
	.st15{fill:#C7DFEE;}
	.st16{fill:#2F2F30;}
	.st17{fill:#2E2E2F;}
	.st18{fill:#353A3D;}
	.st19{fill:#BCBCBC;}
	.st20{fill:#CDE5F6;}
	.st21{fill:#BEBFBF;}
	.st22{fill:#B5B6B6;}
	.st23{fill:#B6B6B6;}
	.st24{fill:#B7B7B7;}
	.st25{fill:#B5B5B5;}
	.st26{fill:#C3DAE9;}
	.st27{fill:#BABBBC;}
	.st28{fill:#B4B4B4;}
	.st29{fill:#171B1D;}
	.st30{fill:#B8B8B8;}
	.st31{fill:#B7B8B8;}
	.st32{fill:#4E4F4F;}
	.st33{fill:#B3B3B3;}
	.st34{fill:#B2B2B3;}
	.st35{fill:#B3B4B4;}
	.st36{fill:#B0B1B1;}
	.st37{fill:#BDBEBE;}
	.st38{fill:#BABABA;}
	.st39{fill:#B6B7B7;}
	.st40{fill:#B9B9B9;}
	.st41{fill:#B2B3B4;}
	.st42{fill:#C7C7C7;}
	.st43{fill:#282828;}
	.st44{fill:#5D5E5E;}
	.st45{fill:#535455;}
	.st46{fill:#7E7F7F;}
	.st47{fill:#C5DDEC;}
	.st48{fill:#B8B9BA;}
	.st49{fill:#AEB0B2;}
	.st50{fill:#141415;}
	.st51{fill:#ADAFB1;}
	.st52{fill:#B8B9B9;}
	.st53{fill:#C8E3F5;}
	.st54{fill:#DCF8F8;}
	.st55{fill:#334B58;}
	.st56{fill:#496168;}
	.st57{fill:#B0CBDB;}
	.st58{fill:#C4DAEA;}
	.st59{fill:#E5E5E5;}
	.st60{fill:#D2EDF6;}
	.st61{fill:#F3F3F3;}
	.st62{fill:#F2F2F2;}
	.st63{fill:#202020;}
	.st64{fill:#F0F0F0;}
	.st65{fill:#F0F1F1;}
	.st66{fill:#F1F1F1;}
	.st67{fill:#DCF7F7;}
	.st68{fill:#344C5B;}
	.st69{fill:#121314;}
	.st70{fill:#C7E3F5;}
	.st71{fill:#ACB6BC;}
	.st72{fill:#8DA8BA;}
</style>
<g>
	<path class="st0" d="M265.73,196.21c6.09-0.78,6.04-0.76,4.38-6.65c-1.11-3.92-2.91-7.5-3.33-11.8c-0.95-9.72,3.3-17.37,7.98-25.11
		c2.65-4.38,4.66-9.05,5.24-14.23c0.14-1.23-0.44-2.93,1.48-3.19c1.62-0.21,2.01,1.36,2.85,2.36c1.45,1.74,1.62,6.16,3.15,5.4
		c2.46-1.22,3.86-4.72,4.43-7.82c0.57-3.08,0.76-6.23,1.08-9.35c0.12-1.14-0.16-2.61,1.17-3.02c1.54-0.47,1.74,1.17,2.27,2.09
		c3.8,6.59,5.78,13.96,4.29,21.2c-2.25,10.88,0.8,19.93,7.25,28.1c4.39,5.55,4.68,11.01,2.13,17.22c-0.56,1.37-2.8,2.85-0.4,4.73
		c2.34,1.83,3.6-0.36,5.27-1.1c1.75,3.21,5.26,4.25,7.88,6.39c1.01,0.82,2.35,1.64,2.09,3.08c-0.28,1.56-1.86,1.55-3.15,1.74
		c-13.34-3.18-26.91-2.81-40.48-2.96C275.3,203.22,269.86,200.91,265.73,196.21z"/>
	<path class="st1" d="M322.89,205.15c0.97-0.35,2.14-0.75,0.62-1.8c-2.17-1.5-4.29-3.28-6.72-4.11c-2.62-0.89-2.2-2.37-1.82-4.18
		c4.2-8.64,12.29-13.29,19.56-18.67c8.26-6.11,16.84-11.77,25.31-17.59c1.03-0.71,2.02-1.76,4.69-0.93
		c-11.94,11.53-25.63,20.31-37,31.53c0.45,0.51,0.91,1.02,1.36,1.53c12.76-9.85,25.53-19.69,38.34-29.57
		c1.19,1.76,0.24,2.51-0.63,3.3c-10.58,9.59-21.15,19.19-31.75,28.76c-0.85,0.76-2.42,1.44-1.53,2.65c1.27,1.73,2.39-0.16,3.21-0.86
		c8.98-7.63,17.88-15.36,26.82-23.03c2.47-2.11,5.02-4.12,8.23-6.75c0.04,3.37-1.9,4.38-3.16,5.65c-9,9.1-18.11,18.09-27.07,27.23
		c-1.11,1.14-4.07,2.5-2.46,4.06c1.86,1.8,3.31-1.16,4.61-2.4c9.62-9.15,19.15-18.39,28.75-27.57c0.88-0.84,1.87-2.77,3.1-1.73
		c1.61,1.36-0.21,2.62-1.16,3.67c-9.47,10.46-18.85,21-28.52,31.27c-3.15,3.35-6.9,6.03-3.62,11.25c-2.4,0.82-2.93-1.51-4.06-2.58
		c-1.8-1.72-3.86-3-5.95-4.27C329.43,207.57,324.79,208.95,322.89,205.15z"/>
	<path class="st2" d="M226.18,198.09c-23.83,6.32-42.21,21.13-58.79,38.41c-13.06,13.63-24.17,28.8-32.3,45.97
		c-0.21,0.45-0.43,0.91-0.7,1.32c-0.84,1.26-1.8,2.84-3.51,2.01c-1.99-0.96-0.73-2.62-0.14-3.87c4.58-9.66,7.67-19.88,10.97-30
		c4.03-12.34,7.72-24.79,11.56-37.2c0.34-1.1,0.86-2.18,0.14-4.16c-3.82,5.97-7.42,11.49-10.91,17.09
		c-11.8,18.93-23.54,37.89-35.39,56.79c-1.13,1.8-2.29,5.35-4.73,3.79c-1.84-1.18,0.97-3.71,2-5.39
		c14.87-24.28,29.82-48.51,44.8-72.71c1.57-2.54,3.35-4.98,5.25-7.28c1.05-1.28,2.65-2.28,4.41-1.34c1.64,0.88,1.34,2.65,0.99,4.04
		c-1.51,5.97-3.02,11.94-4.81,17.82c-2.9,9.56-6.01,19.05-9.04,28.57c0.04,1.16-2.15,3.12,1.12,3.11
		c12.91-17.96,28.4-33.28,46.77-45.62c6.58-4.42,13.41-8.38,21.1-10.62c2.46-2.7,6-2.46,9.13-3.36c1.53-0.46,3.03-0.8,4.11,0.87
		C228.39,197.89,226.51,197.1,226.18,198.09z"/>
	<path class="st3" d="M224.15,195.13c4.63-1.45,3.45-3.66,1.07-6.45c-6.7-7.86-11.38-16.87-14.58-26.68
		c-0.64-1.95-1.31-4.05,0.72-5.39c2.05-1.36,3.29,0.62,4.6,1.79c12.33,11.01,24.69,22,36.95,33.1c1.24,1.12,3.27,0.92,3.94,2.73
		c-2.32,1.86-4.78,0.19-7.17,0.23c-6.58,0.1-13.16-0.23-19.68,1.08C228.09,195.92,226.07,195.65,224.15,195.13z"/>
	<path class="st4" d="M352.99,273.01c-1.2,4.05,2.5,5.14,4.6,6.51c4.57,2.99,7.84,7.06,10.61,11.47c2.11,3.36,0.56,6.69-2.12,9.39
		c-3.03,3.06-6.5,4.76-10.69,2.65c-5.04-2.54-9.06-6.53-13.42-10.02c0.3-0.4,0.77-0.56,1.14-0.84c0.88-0.67-0.25-0.39-0.3-0.42
		c-2.33-1.24-5.61-0.55-7.09-3.53c3.11-3.64,4.93-8.02,6.99-12.32c-0.97-0.4-2.31,0.15-2.97-1.08c0.75-2.92,3.28-3.42,5.5-3.14
		C347.82,272.02,350.56,271.76,352.99,273.01z"/>
	<path class="st5" d="M228.97,302.89c-0.29-2.23-1.45-1.6-2.76-0.92c-2.78,1.44-5.61,2.79-8.41,4.19c-2.69,1.34-5.36,0.79-7.47-0.89
		c-2.24-1.79-1.55-4.54-0.94-6.94c1-3.94,3.32-7.29,6.01-10.13c4.99-5.28,10.41-10.16,15.64-15.21c3.03-1.42,3.71,1.12,4.32,2.91
		c0.87,2.55,2.62,3.79,4.98,4.53c0.69,1.98-0.41,3.55-1.24,5.14c-2.3,4.42-4.37,8.94-6.37,13.5
		C232.01,300.74,231.68,303.07,228.97,302.89z"/>
	<path class="st6" d="M338.07,291.9c-3.7-0.46-6.05,1.54-8.51,4.04c-5.32,5.41-11.62,9.5-18.81,12.07
		c-3.86,1.38-7.78,2.58-11.67,3.86c-1.98,1.95-4.02,1.65-6.09,0.15c-1.74,0.16-3.68-0.67-5.1,1.04c-2.14,0.3-4.07-0.39-5.97-1.23
		c-9.85-1.8-19.33-4.43-27.55-10.59c-2.55-1.91-4.94-3.99-6.88-6.39c-3.05-3.77-5.91-5.25-9.57-0.95c-1.02-4.08,1.46-6.87,3.62-9.78
		c2.28-1.5,4.01-0.38,5.79,1.1c3.08,2.56,5.61,5.67,8.58,8.33c18.39,16.5,50.18,16.2,67.91-0.99c3.55-3.44,7.12-3.64,11.33-2.82
		C336.34,290.15,337.99,289.97,338.07,291.9z"/>
	<path class="st7" d="M448.77,274.11c-2.07-2.56-3.92-3.68-7.53-1.65c-4.75,2.66-6.15,0.93-5.69-6.2c-2.28,0.35-3.95,1.89-5.36,3.34
		c-4.55,4.64-9.33,5.33-14.7,1.67c-0.87-0.6-1.52-0.26-2.22,0.19c-2.84,1.84-6.15,3.98-8.97,1.12c-2.54-2.56,1.42-4.94,1.74-7.59
		l-0.13,0.14c2.68-1.75,5.35-3.49,8.03-5.24c1.07-0.65,2.25-0.31,3.38-0.38c1.27-0.07,2.5,0.36,2.68,1.65
		c0.23,1.67-1.09,2.23-2.54,2.31c-2.91,0.17-4.69,2.14-6.48,4.13c1.08-0.49,1.99-1.25,2.98-1.9c3.86-2.51,4.97-2.08,5.41,2.43
		c0.19,1.97,0.61,2.86,2.64,1.88c2.2-1.07,3.37-3.06,4.76-4.93c1.07-1.43,1.84-5.84,4.69-1.06c0.66,1.1,1.99-0.43,3-0.78
		c1.85-0.64,3.81-2,5.55-0.24c1.64,1.66-0.07,3.39-0.5,5.08c-0.12,0.47-0.18,0.95-0.38,2.07c4.12-0.72,7.35-1.91,8.94-5.97
		c1.82-4.64,3.64-9.28,5.7-13.81c1.54-3.39,1.6-5.43-3.01-4.81c-0.79,0.11-1.67,0.1-2.23-0.81c0.09-0.2,0.2-0.65,0.28-0.64
		c6.82,0.58,10.08-3.37,11.96-9.23c0.32-1,1-2.5,2.4-2c1.9,0.67,0.67,2.16,0.41,3.33c-0.07,0.32-0.26,0.61-0.37,0.92
		c-2.08,5.62-2.08,5.62,4.01,6.14c0.79,0.07,1.71-0.06,2.06,1.79c-10.74-2.68-11.91,5.77-14.53,12.44
		c-1.79,4.56-4.74,8.88-3.66,14.2c1.17,1.79,3.56-0.12,5.01,1.86C453.7,275.2,451.21,274.43,448.77,274.11z"/>
	<path class="st8" d="M352.99,273.01c-2.47,0.25-4.8,1.32-7.4-0.4c-2.37-1.57-3.89,1.3-5.79,2.21c-0.3,0.49-0.72,0.84-1.26,1.05
		c-1.91,0.36-3.82,0.71-4.77-1.66c1.08-1.16,2.31-0.87,3.96-0.24c-1.09-0.94-3.03,0.07-2.96-1.87c1.89-2.28,5.16-0.77,7.19-2.63
		c2.53-1.58,4.42-3.99,7.03-5.47c2.2-1.94,4.74-3.26,7.5-4.19c2.05-0.7,3.86-0.61,5.18,1.38c0.54,2.23-1.06,2.45-2.54,2.5
		c-2.96,0.09-4.59,2.06-6.64,4.12c3-1.08,4.62-5.07,8.35-2.65c0.96,1.52-1.69,3.94,0.66,4.74c2.76,0.93,4.66-1.05,5.91-3.41
		c0.86-1.61,1.59-3.28,2.42-4.91c0.46-0.91,1.05-1.86,2.26-1.37c1.2,0.48,0.94,1.57,0.68,2.55c-0.82,2.96-2.75,5.6-2.93,9.34
		c4.53-1.79,6.66-5.47,9.54-8.25c1.35-1.3,2.38-3.97,4.67-2.69c2.13,1.19,0.12,3.26-0.13,4.92c-0.21,1.42-1.77,3.12-0.48,4.16
		c1.57,1.26,2.92-0.78,4.27-1.51c1.29-0.7,2.82-1.54,3.47-2.73c2.13-3.94,3.91-6.68,9.7-5.87c4.09,0.57,5.81,0.76,5.04,5.02
		c0,0,0.13-0.14,0.13-0.14c-7.42-4.25-10.21,1.65-13.67,6.19c-2.03,2.67-10.74,3.67-12.65,1.07c-1.77-2.41-2.62-1.35-4.18-0.12
		c-3.04,2.39-6.13,5.92-9.85,0.82C361.47,275.12,357.2,268.8,352.99,273.01z"/>
	<path class="st9" d="M240.08,280.13c-2.95,2.15-4.11,0.28-5.21-2.18c-0.86-1.93-0.63-4.8-3.82-4.96c2.88-4.47-0.4-8.72-0.98-12.84
		c-2.02-14.38,0.24-27.54,8.76-39.3c1.84-2.54-0.24-5.72,2.31-7.71c2.04,1.24,3.4-0.26,4.91-1.19c2.38-1.47,4.66-3.26,7.75-2.72
		c3.03,2.15,0.3,3.37-0.9,4.51c-6.74,6.44-11.82,13.89-14.4,22.91c-3.24,11.35-2.72,22.63,0.8,33.83c0.93,2.97,2.73,5.79,1.31,9.09
		C240.44,279.75,240.26,279.94,240.08,280.13z"/>
	<path class="st10" d="M191.03,263.97c-1.39,1.41-3.24,2.59-4.09,4.27c-2.97,5.89-8.75,5.62-13.89,6.76
		c-0.91,0.2-2.45,0.17-2.86-0.38c-2.94-3.94-6.11-2.52-9.57-0.91c-1.6,0.75-3.66,0.97-5.07-0.73c-1.24-1.5-0.57-3.17-0.05-4.75
		c0.26-0.79,0.6-1.57,1.03-2.27c0.93-1.48,1.63-4.29,3.55-3.49c2.47,1.03-0.08,2.98-0.4,4.53c-0.23,1.09-1.37,2.24-0.48,3.25
		c1.14,1.3,2.48,0.15,3.6-0.38c2.94-1.38,5.18-3.35,6.32-6.63c1.53-4.39,3.31-8.72,5.31-12.92c1.7-3.58,1.34-5.28-3.05-4.72
		c-0.77,0.1-1.69,0.07-2.14-0.9c0.14-0.24,0.29-0.69,0.41-0.68c6.44,0.33,10.03-2.92,11.66-8.94c0.31-1.16,1.1-2.95,2.7-2.27
		c2.15,0.91,0.33,2.5,0.14,3.82c-0.33,2.25-2.7,3.82-2.1,6.36c1.61,2.41-1.33,2.09-1.91,3.18c-2.61,6.99-6.16,13.62-8.11,20.85
		c-0.41,1.53-1.4,3.34,0.31,4.61c1.5,1.12,3.19,0.38,4.74-0.27c4.13-1.72,7.09-4.65,8.85-8.77c1.1-2.58,2.6-3.76,5.13-1.54
		C192.72,262.03,192.52,263,191.03,263.97z"/>
	<path class="st11" d="M295.22,62.02c0.22,6.83-1.59,12.34-5.68,17.34c-2.1,2.56-4.44,5.45-3.58,9.39c0.21,0.95-0.04,2.21-1.18,2.47
		c-1.31,0.3-1.47-0.92-1.76-1.87c-4.15-13.43-0.74-25.29,7.53-36.12c0.79-1.03,1.88-1.35,3.11-1c1.22,0.34,1.31,1.4,1.31,2.4
		C295,57.26,296.13,59.87,295.22,62.02z"/>
	<path class="st12" d="M226.18,198.09c0.25-0.98,1.26-0.65,1.84-1.07c3.13-2.15,6.79-2.23,10.35-2.46
		c8.09-0.53,16.08,0.29,23.91,2.4c2.12,0.44,4.12,1.24,6.06,2.17c1.26,0.6,2.25,1.53,1.98,3.08c-0.23,1.35-1.43,1.75-2.55,2.04
		c-3.68,0.97-7.49,1.39-11.11,2.55c-3.62,1.16-7.22,2.41-10.46,4.48c-1.26,0.8-2.47,1.76-4.08,0.87c1.17-1.74,1.71-3.21-0.36-4.94
		c-2.63-2.21-5.11-4.67-7.3-7.32C232.05,196.98,228.94,198.62,226.18,198.09z"/>
	<path class="st13" d="M241.96,284.88c-1.35,3-2.69,6.01-4.04,9.01c-3.24,4.82-5.06,10.34-7.66,15.47c-0.64,1.26-1.06,3.26-2.97,2.6
		c-2.25-0.77-0.43-2.45-0.38-3.76c0.09-2.02,0.91-3.73,2.06-5.32c3.07-2.59,3.13-6.7,4.98-9.94c2.34-4.11,4.11-8.54,6.12-12.83
		c0,0,0.07-0.15,0.07-0.15c1-3.13,1.21-6.52,3.07-9.38c0.36-0.55,0.83-1.38,0.58-1.85c-2.49-4.82,0.83-6.01,4.03-8.64
		c3.51-2.89,5.15-7.98,7.29-12.29c1.35-2.29,2.25-4.85,4.15-6.8c1.6-1.28,2.21-3.27,3.41-4.83c0.49-0.63,1.01-1.47,1.96-1.16
		c1.17,0.38,1.16,1.47,1.06,2.47c-0.17,1.51-0.93,2.82-1.6,4.14c-2.68,5.3-5.69,10.43-8.02,15.9c-0.38,1-0.84,1.97-0.87,3.07
		c0.55,1.7,2.58,2.75,2.17,4.87c0.39,0.76,1.11,1.42,0.75,2.41c-0.98,1.3-2.45,1.3-3.86,1.45c-2.95-0.11-4.5,1.41-5.39,4.16
		C247.48,277.8,245.2,281.65,241.96,284.88z"/>
	<path class="st14" d="M242.12,212.14c8.29-5.82,18-7.77,27.97-9.76c-1.84-3.25-5.26-2.55-7.39-4.2c0.85-0.55,0.09-1.36,0.33-2.02
		c0.9,0.01,1.8,0.03,2.69,0.04c7.41,3.78,14.85,6.5,23.61,5.88c11.24-0.8,22.54,0.1,33.55,3.06c3.01,1.93,7.09,1.2,9.78,3.93
		c-0.91,1.01,0.36,2.84-1.34,3.56c-2.56,0.65-4.47-0.91-6.55-1.91c-13.55-3.29-27.19-5.82-41.22-5.33c-1.5,0.05-2.98,0.09-4.4,0.61
		c-5.13,0.99-10.34,1.35-15.5,2.08c-3.59,0.54-7.1,1.62-10.76,1.76c-3.31,0.71-5.87,2.71-8.45,4.76c-1.73,1.37-3.44,1.75-3.32-1.48
		C241.46,212.81,241.79,212.47,242.12,212.14z"/>
	<path class="st15" d="M349,264c-0.84,3.09-3.77,4.24-5.79,6.23c-2.28,0.69-3.44-0.74-2.98-2.51c1.75-6.84,0.22-14.15,3.11-20.8
		c1.37-1.59,2.87-2.46,4.77-0.77C348.41,252.11,348.7,258.05,349,264z"/>
	<path class="st16" d="M203.44,273.86c-2.36-0.41-5.46-0.5-5.46-4.47c0-4.65,5.36-8.5,11.51-8.33c2.7,0.07,4.46,1.26,4.41,4.17
		C213.83,269.34,208.48,273.88,203.44,273.86z"/>
	<path class="st17" d="M263.03,196.17c0.76,0.81,2.26,1.75-0.33,2.02c-11.47-2.84-23.05-2.67-34.67-1.16
		c-1.07-1.54-2.77-0.62-4.12-1.08c-0.28-0.28-0.33-0.49-0.17-0.64c0.13-0.11,0.26-0.17,0.41-0.17l0,0c7.1-1.23,14.19-2.75,21.46-2.2
		c3.76,0.28,7.49,0.86,11.24,1.3C258.68,195.62,261.26,194.59,263.03,196.17z"/>
	<path class="st18" d="M338.07,291.9c-0.98-0.34-1.95-0.68-2.93-1.02c-8.16-1.63-16.54-2.36-24.28-5.78
		c-1.01-0.52-1.85-1.19-2.13-2.36c0.46-1.69,1.87-1.82,3.25-2c6.87,0.74,13.42,2.76,19.94,4.95c1.45,0.56,3.02,0.95,3.92,2.41
		c3.75,1.77,8.11,2.09,11.47,5.26c-1.78-0.12-3.56-0.23-5.34-0.35C340.52,293.17,339.24,292.72,338.07,291.9z"/>
	<path class="st19" d="M449.96,322.05c-1.55-2.86-0.93-5.37-0.82-7.75c0.17-3.48,3.03-2.23,4.93-2.35c2.22-0.14,4.01,0.66,3.94,3.29
		c-0.03,0.94-0.4,1.97-0.9,2.79c-1.12,1.86,2.66,3.56,0.67,4.57c-2.2,1.11-2.09-2.38-3.57-3.25
		C452.93,318.58,452.19,319.02,449.96,322.05z"/>
	<path class="st19" d="M490.08,322.21c-1.54-2.49-0.87-4.36-1.1-6.12c-0.57-4.33,2.17-4.45,5.25-4.2c3.32,0.26,4.65,2.11,3.18,5
		c-1.05,2.06,0.76,3.81-0.08,5.83C494.81,322.72,493.47,314.48,490.08,322.21z"/>
	<path class="st20" d="M294.03,98.56c0-1.66-0.01-3.32,0-4.98c0-1.2,0.1-2.54,1.37-2.94c1.62-0.51,2.74,1.08,3,2.02
		c1.03,3.68,1.13,7.51-0.07,11.19c-0.38,1.15-1.47,2.58-2.88,2.41c-1.71-0.22-1.42-1.95-1.46-3.23c-0.05-1.49-0.01-2.98-0.01-4.48
		C294,98.56,294.01,98.56,294.03,98.56z"/>
	<path class="st21" d="M292.99,312.01c2.03-0.05,4.06-0.1,6.09-0.15c1.55,1.03,3.22,2.14,2.58,4.3c-0.57,1.92-2.17,2.98-4.2,2.79
		c-2.07-0.2-2.39,1.78-3.88,3.5C292.47,318.44,293.03,315.2,292.99,312.01z"/>
	<path class="st22" d="M422,270.02c-2.43,1.97-3.57,1.36-3.4-1.74c0.06-1.1,0.87-2.43-0.52-3.11c-1.49-0.73-2.41,0.63-3.45,1.39
		c-1.98,1.44-3.48,3.59-6.07,4.21c0.11-3.75,4.2-8.32,7.65-8.63c1.09-0.1,2.93,1.67,3.1-0.57c0.15-1.96-1.9-1.84-3.4-1.78
		c-0.66,0.03-1.32,0.07-1.98,0.11c5.4-2.16,6.59-1.16,6.21,4.39C420.02,266.14,418.29,269.15,422,270.02z"/>
	<path class="st23" d="M167.3,323.1c-4.07-0.17-6.31-1.91-6.24-5.81c0.07-3.89,2.74-5.87,6.1-5.82c3.16,0.05,5.6,2.27,5.73,5.75
		C173.04,321.1,170.52,322.71,167.3,323.1z"/>
	<path class="st24" d="M222.07,317.59c0.34,3.79-2.13,5.25-5.72,5.46c-3.64,0.21-5.81-1.97-6.01-5.25
		c-0.21-3.57,2.03-6.03,5.73-6.16C219.64,311.5,222.11,313.17,222.07,317.59z"/>
	<path class="st25" d="M183.64,317.21c0.76-1.56-0.31-3.47,1.1-4.6c1.21,0.14,1.27,0.93,1.22,1.52c-0.24,2.73,1.46,6.57-1.08,7.9
		c-2.61,1.36-2.54-3.68-5.16-4.31c-1.4,0.89,0.14,2.97-1.42,3.81c-0.29-0.09-0.81-0.16-0.83-0.3c-0.45-2.91-1.79-7.04,0.41-8.4
		C180.66,311.09,180.53,316.7,183.64,317.21z"/>
	<path class="st26" d="M342.34,222.98c0.85,3.16,1.37,6.46,3.64,9.05c0.32,0.39,0.46,0.83,0.39,1.34c-0.51,1.68-1.17,3.27-2.49,4.51
		c-2.05,1.33-3.33,0.37-4.25-1.48c-1.09-2.18-2.05-4.41-1.87-6.94c0.19-2.16,1.22-3.93,2.53-5.58
		C340.85,223.29,341.52,222.96,342.34,222.98z"/>
	<path class="st24" d="M445.01,317.53c-0.28,3.39-2.22,5.42-5.96,5.51c-3.97,0.1-5.8-2.49-5.89-5.9c-0.08-3.45,2.62-5.54,5.73-5.7
		C442.38,311.27,444.67,313.45,445.01,317.53z"/>
	<path class="st24" d="M137.63,312.69c0.15,0.35,0.28,0.5,0.28,0.65c-0.01,3.04,1.73,7.39-0.77,8.71c-2.44,1.29-2.95-3.91-5.36-5.25
		c-1.51,1.33,0.4,3.7-1.57,4.69c-0.97-0.17-1.11-0.93-1.04-1.53c0.29-2.52-1.47-6.15,1.22-7.3c3.01-1.28,2.6,3.54,4.99,4.55
		C137.02,316.24,135.1,313.6,137.63,312.69z"/>
	<path class="st27" d="M281.91,311.83c2.34-1.28,4.12,0.13,5.97,1.23c-0.28,3.87-3.65-0.77-4.54,2.02c1.58,1.86,6.15,1.31,5.53,5.46
		c-0.26,1.74-1.6,2.41-3.26,2.5c-2.48,0.13-4.6-0.31-5.23-3.18c0.97-0.94,1.56-0.16,2.21,0.27c1.31,0.86,3.09,1.71,3.78-0.05
		c0.63-1.61-1.39-1.75-2.64-2.13C280.14,316.83,280.18,314.57,281.91,311.83z"/>
	<path class="st28" d="M330,316c-0.13-1.84,0.1-4.35,4.35-4.13c3.68,0.19,5.57,1.92,5.56,5.43c-0.01,3.81-2.39,5.48-6.02,5.68
		C329.33,323.23,330.14,319.94,330,316z"/>
	<path class="st29" d="M342.34,222.98c-0.41,0.36-0.81,0.73-1.22,1.09c-2.03,0.56-2.01-1.41-2.87-2.3
		c-0.37-0.58-0.71-1.19-1.01-1.81c-0.85-3.25-4.35-4.75-5.25-7.96c0.29-0.96-3.95-2.97,0.68-2.92c4.13,1.38,6.9,4.4,9.39,7.76
		C342.16,218.88,342.25,220.93,342.34,222.98z"/>
	<path class="st24" d="M462.95,317.21c0-2.84-0.56-5.54,3.53-5.32c3.71,0.2,6.22,1.66,6.29,5.51c0.08,4.01-2.82,5.41-6.28,5.53
		C461.79,323.1,463.2,319.42,462.95,317.21z"/>
	<path class="st24" d="M358.24,323.16c-3.76-0.28-6.19-2.04-6.13-5.8c0.06-3.71,2.68-5.8,6.07-5.9c3.3-0.1,5.69,1.99,5.65,5.55
		C363.8,320.57,361.9,322.84,358.24,323.16z"/>
	<path class="st1" d="M420.39,322.22c-2.47,0.69-5.58,2.13-6.92-0.85c-1.15-2.57-1.49-6.22,0.29-8.58c1.45-1.91,4.35-1.14,6.77-0.26
		c-0.96,2.16-3.01,0.8-4.06,2.08c-0.2,2.24,2.66,0.64,3.02,2.29C419.28,319.56,419.65,321.58,420.39,322.22z"/>
	<path class="st30" d="M483.22,317.31c-0.96,1.51-3.98-0.28-3.89,2.07c0.11,3.12,3.94,0.35,5.25,2.95
		c-2.46,0.99-5.46,1.59-6.82-0.14c-1.96-2.49-1.52-6.35-0.33-9.04c1.16-2.61,4.32-0.77,7.28-1.39c-1.47,2.91-3.86,1.63-5.24,2.79
		C479.59,317.04,482.5,315.21,483.22,317.31z"/>
	<path class="st23" d="M267.53,311.71c-1.94,2.88-3.91,1.64-5.03,2.95c0.37,2.41,3.04,0.54,3.95,2.16
		c-0.32,2.47-4.49-0.05-4.14,2.69c0.35,2.82,3.64,0.48,5.16,2.4c-2.12,1.82-4.99,1.82-6.4,0.26c-2.21-2.45-1.65-6.22-0.6-8.99
		C261.48,310.48,264.38,312.38,267.53,311.71z"/>
	<path class="st24" d="M325.33,311.85c-1.75,2.78-3.73,1.5-4.81,2.8c0.18,2.59,3.49,0.22,3.96,2.41c-0.8,1.9-4.16-0.18-4.16,2.34
		c0,2.73,3.24,0.67,4.41,2.6c-1.97,1.53-4.71,1.83-5.95,0.21c-1.94-2.55-1.42-6.25-0.36-9.01
		C319.44,310.55,322.33,312.33,325.33,311.85z"/>
	<path class="st31" d="M123.56,316.94c-0.97,2.02-4.35-0.1-4.22,2.61c0.12,2.52,3.35,0.47,4.49,2.6c-2.08,1.24-4.81,1.77-6.04,0
		c-1.8-2.58-1.5-6.3-0.31-9.02c1.04-2.38,3.91-1.13,6.48-0.67c-1.09,2.19-3.39,0.88-4.41,2.31
		C120.01,317.02,122.64,315.15,123.56,316.94z"/>
	<path class="st25" d="M312.17,317.31c-1,1.44-3.91-0.28-3.92,2.07c-0.01,2.78,3.24,0.69,4.43,2.59c-1.94,1.64-4.78,1.75-5.94,0.26
		c-1.97-2.55-1.52-6.27-0.41-9.05c1.06-2.67,3.98-0.82,6.55-1.34c-0.94,2.95-3.31,1.44-4.42,2.76
		C308.51,317.06,311.49,315.17,312.17,317.31z"/>
	<path class="st32" d="M448.77,274.11c2.08,0,4.16,0,6.56,0c-1.2-1.9-3.71-0.22-4.23-2.41c6.48,1.45,9.75-4.33,14.73-6.99
		C464.43,271.97,455.39,276.71,448.77,274.11z"/>
	<path class="st33" d="M400.48,312.56c3.57,4.61,5.14,4.46,7.23-0.21c1.97,3.21,1.32,6.19,0.58,9.53c-2.02-1.07-0.92-4.19-4.01-3.99
		c-2.75,0.18-1.7,2.88-3.59,3.92C399.43,318.92,399.82,316.19,400.48,312.56z"/>
	<path class="st34" d="M88.18,321.8c-2.66-2.41-5.23-1.94-7.68-0.32c-0.26-0.47-0.42-0.63-0.4-0.75c0.71-3.01,1.52-8.15,3.55-7.94
		C87.59,313.19,86.69,318.45,88.18,321.8z"/>
	<path class="st35" d="M360.84,265.15c-2.57-0.81-3.91,1.21-5.59,2.44c-1.55,1.14-2.65,3-4.89,3.08c0.33-4.58,4.45-8.64,8.72-8.24
		c1.41,0.13,2.2,0.18,2.59-1.25C364.18,263.09,360.79,263.76,360.84,265.15z"/>
	<path class="st36" d="M247.38,322.01c-0.64-3.42-0.72-6.24-0.13-9.41c3.65,4.64,4.93,4.67,7.36,0.41c0.99,1.32,0.55,2.82,0.62,4.21
		c0.06,1.3-0.11,2.62-0.21,4.34c-1.54-1.25-1.06-3.66-3.65-3.65C248.58,317.92,249.34,320.5,247.38,322.01z"/>
	<path class="st37" d="M392.06,323.08c-2.47-3.64-0.98-7.75-3.97-10.44c2.63-1.18,4.81-1,7.71-0.13
		C391.26,314.87,393.88,319.13,392.06,323.08z"/>
	<path class="st38" d="M370.47,315.32c0.97,0.43,1.96,0.86,3.61,1.59c-2.55,1.05-4.26,2.41-5.13,4.74c-1.15-3.1-1.8-6.26,0.05-8.88
		c1.17-1.65,3.52-1.15,5.45-0.24C374.07,315.08,371.33,312.98,370.47,315.32z"/>
	<path class="st4" d="M92.98,312.59c2.79-1.18,4.99-0.62,8.1-0.56c-2.29,2.3-3.58,4.26-3.16,6.92c0.15,0.97,0.1,2.62-1.56,2.4
		c-1.1-0.14-1.4-1.54-1-2.41C96.61,316.25,95.17,314.41,92.98,312.59z"/>
	<path class="st39" d="M113.18,312.47c-5.13,2.11-1.89,6.79-4.46,10.13c-1.93-3.33,0.87-7.81-4.17-9.81
		C107.77,311.55,109.95,311.7,113.18,312.47z"/>
	<path class="st38" d="M202.12,322.04c-1.46-2.13-1.17-3.88-0.97-5.44c0.27-2.15-1.86-2.41-2.7-4.03c2.47-1.23,4.73-0.64,7.48,0.01
		C201.14,314.25,204.31,319.05,202.12,322.04z"/>
	<path class="st4" d="M146.69,322.93c-2.85-3.37-1.1-6.91-2.75-9.95c-0.81-1.49,3.48-0.64,5.82-0.6
		C145.86,314.85,147.71,318.84,146.69,322.93z"/>
	<path class="st40" d="M238.22,322.42c-2-3.78,0.14-7.52-3.1-9.88c2.41-0.97,4.32-0.87,6.92-0.02
		C237.77,314.56,239.86,318.56,238.22,322.42z"/>
	<path class="st41" d="M345.96,232.99c-0.01-0.32,0-0.64,0.03-0.97c3.33-0.48,3.84,1.57,2.87,3.87c-1.84,4.37-2.66,7.53,4.06,6.96
		c1.91-0.16,3.04,1.19,0.3,2.38c-0.24-0.05-0.48-0.09-0.71-0.14c-1.33-0.16-2.66-0.09-3.99-0.13c-3.56-0.11-4.72-1.9-3.75-5.27
		C345.39,237.51,346.83,235.45,345.96,232.99z"/>
	<path class="st42" d="M157.07,317.36c-0.37,1.68,0.87,4.6-1.41,4.68c-2.45,0.09-1.45-2.84-1.48-4.47
		c-0.03-1.68-0.91-4.61,1.29-4.69C157.91,312.81,156.61,315.77,157.07,317.36z"/>
	<path class="st43" d="M191.03,263.97c0.6-0.97,0.65-1.95,0.01-2.92c1.94-0.34,3.86-0.81,5.82-0.96c1.24-0.1,2.2,0.64,2.24,2.09
		c0.03,1.02-0.14,2.03-1.09,2.59c-1.06,0.62-1.62,0.18-2.25-0.9C194.24,261.3,192.63,264.4,191.03,263.97z"/>
	<path class="st44" d="M165.88,255.02c-0.48,1.83-1.29,3.62-3.51,4.06c-0.91,0.18-1.62-0.57-1.37-1.5c0.53-1.89,1.21-3.86,3.44-4.32
		C165.24,253.09,165.84,253.92,165.88,255.02z"/>
	<path class="st45" d="M180.12,246.17c0.24-1.3,2.16-1.59,1.91-3.18c2.79,0.1,5.67-0.47,8.31,1.68
		C186.94,245.17,183.53,245.67,180.12,246.17z"/>
	<path class="st3" d="M224.15,195.13c-0.02,0.29-0.11,0.56-0.24,0.81c-2.85,1.37-6.29,0.9-8.94,2.88
		C217.1,195.28,220.59,195.12,224.15,195.13z"/>
	<path class="st46" d="M147.09,255.06c-0.09,1.44-0.87,2.9-2.2,2.52c-1.79-0.52-0.53-2.08-0.21-3.18c0.26-0.89,0.26-1.95,1.3-2.45
		C146.4,252.97,145.62,254.42,147.09,255.06z"/>
	<path class="st41" d="M348.11,246.16c-1.48-0.29-2.84-0.09-3.95,1.04c-0.45-0.44-0.63-0.97-0.53-1.59c2.84-2.48,6.06-0.7,9.11-0.82
		c0.16,0.15,0.32,0.29,0.48,0.44C351.68,246.42,349.8,245.76,348.11,246.16z"/>
	<path class="st47" d="M335.84,288.1c-1.28-0.4-2.55-0.8-3.83-1.19c0.02-5.31,3.42-8.63,6.97-11.86c0.23-0.24,0.5-0.32,0.82-0.23
		c1.43-0.11,2.86-0.22,5.11-0.38C341.39,279.07,342.04,285.67,335.84,288.1z"/>
	<path class="st48" d="M311.03,284.16c8.03,2.24,16.07,4.48,24.1,6.72c-5.58-1.75-8.76,1.66-12.73,4.91
		c-11.61,9.52-25.3,12.34-40.13,10.84c-15.19-1.54-26.35-9.91-36.13-20.7c-1.41-1.56-2.5-1.9-4.2-1.05
		c1.88-5.11,5.3-9.49,6.86-14.78c0.69-2.35,3.12-2.03,5.12-1.99c1.86,1.48,4.79-1.39,6.29,1.55c-1.63,1.04-2.42,1.92-1.63,4.36
		c6.75,20.63,26.12,25,41.31,19.73C304.91,292.01,308.17,288.33,311.03,284.16z"/>
	<path class="st49" d="M338.98,275.05c-2.32,3.95-4.65,7.91-6.97,11.86c-6.61-1.73-13.07-4.07-19.88-4.99
		c-1.23-1.19-3.55,0.66-4.42-1.56c0.66-2.16,0.59-3.91-2.19-4.45c-0.97-0.19-1.88-0.73-1.66-2.05c2.46-1.84,5.42-1.19,8.16-1.57
		c1.59-0.22,2.52,0.85,1.82,2.57c-1.97,4.84,1.14,4.44,4.19,4.11c4.52-0.78,7.39-2.79,6.12-8.02c-0.19-0.8,0.14-1.63,0.62-2.34
		c5.41-3.5,6.17-3.24,8.03,2.72c0.29,0.94,0.71,1.84,0.8,2.83C335.21,275.58,337.2,274.66,338.98,275.05z"/>
	<path class="st50" d="M333.61,274.16c-3.92-0.92-1.85-4.58-3.02-6.76c-2.15-0.2-3.56,1.51-5.44,1.87
		c-1.73-0.22-2.82-0.99-2.55-2.94c0.16-0.3,0.36-0.67,0.65-0.71c8.6-1.21,10.95-7.97,13.28-14.82c0.71-2.08,1.46-3.83-1.78-4.19
		c-1.03-0.11-1.88-0.96-1.83-2.05c0.06-1.17,1.2-1.55,2.16-1.69c3.86-0.59,6.67-2.73,8.89-5.8c0.66-1.36,1.32-2.72,1.98-4.08
		c1.11,0.14,2.55,0,2,1.85c-0.38,1.27-0.84,2.53-1.45,3.7c-2.08,3.96-1.33,5.98,3.52,5.49c0.94-0.09,2.02-0.23,2.72,0.76
		c-2.94,0.29-6.16-1.29-8.76,1.3c-2.36,8.73-5.64,17.15-8.85,25.59c0.2,1.67,2.32,0.77,2.86,2.16
		C336.48,273.96,335.05,274.06,333.61,274.16z"/>
	<path class="st51" d="M335.13,271.68c-0.57-5.27,2.27-9.61,4-14.23c1.44-3.85,3.22-7.58,4.85-11.36c0.06,0.37,0.12,0.74,0.18,1.1
		c-2.17,6.59,0.14,13.8-2.85,20.3c-0.75,1.64,0.51,2.34,1.9,2.73C340.88,272.74,338.04,272.39,335.13,271.68z"/>
	<path class="st52" d="M252.91,209.86c3.14-1.83,6.52-2.74,10.15-2.77c2.51,3.85,1.56,8.01,0.57,11.92
		c-1.94,7.64-4.06,15.25-6.38,22.8c-0.63,2.05-1.27,4.09-1.19,6.27c-1.49,4.93-5.11,8.74-7.06,13.41c-0.87,2.08-2.31,1.3-3.72,1.17
		c-0.85-0.08-1.68,0.11-2.07,0.99c-0.42,0.96,0.11,1.73,0.92,1.98c2.73,0.86,2,2.4,1.07,4.19c-1.74,3.36-3.37,6.78-5.05,10.17
		c-0.1-2.32-0.37-4.58-1.23-6.8c-8.2-21.05-4.1-46.75,14.61-61.51C255,210.51,253.89,210.2,252.91,209.86z"/>
	<path class="st53" d="M256.05,248.07c-1.84-2.32-0.67-4.58-0.12-7.02c2.55-11.28,8.23-21.92,7.12-33.96
		c5.19-1.67,10.65-1.36,15.96-2.15c7.75-0.75,15.48-0.69,23.2,0.52c1.82,0.29,2.69,1.12,3.01,2.71c0.98,4.9,4.07,8.62,6.8,12.58
		c3.75,5.45,7.63,10.9,7.96,17.9c-0.1,0.54-0.32,1.03-0.62,1.48c-5.53,3.52-11.79,5.51-17.67,8.32c-1.2,0.57-2.53,0.64-3.76-0.1
		c-1.7-2.01-0.54-4.03-0.13-6.12c2.23-11.29,1.2-22.15-4.5-32.35c-0.24-0.43-0.64-0.75-1.71-0.93
		c-2.41,11.95-4.19,24.91-21.39,23.29c-2.28-3.85,2.03-6.2,2.17-10.89c-4.72,7.45-8.41,14.17-12.64,20.54
		C258.51,243.95,257.28,246.01,256.05,248.07z"/>
	<path class="st54" d="M269.78,231.91c0.73-0.38,1.44-1.07,2.18-1.1c9.67-0.4,15.25-4.99,16.89-14.4c0.35-2.03,1.13-4.07,0.58-6.35
		c-0.28-1.19,0.09-3.26,1.75-3.72c1.74-0.48,2.85,1.28,3.36,2.43c2.59,5.87,5.09,11.74,5.55,18.37c0.49,7.18-0.6,14.09-2.03,21.03
		c-0.14,2.09-1.85,2.6-3.36,3.16c-11.15,4.14-22.4,7.97-33.94,10.84c-2.2,0.55-5,1.92-6.79-1.15c0.4-1.03-0.14-2.34,0.96-3.16
		c3.91-7.53,8.18-14.87,11.54-22.68C267.1,233.73,267.76,232.07,269.78,231.91z"/>
	<path class="st55" d="M253.97,261.02c0.8,1.17,1.92,1.15,3.1,0.81c13.85-4,27.83-7.58,40.98-13.66c7.34-1.79,13.58-6.35,20.86-8.31
		c1.27-0.1,2.45,0.06,3.28,1.19c-0.06,1.89-1.79,2.16-2.92,3.03c-7.62,3.69-15.44,6.93-23.36,9.92
		c-10.23,3.19-20.27,6.95-30.54,10.04c-3.26,0.15-6.19,1.89-9.46,2.01C257.72,263.41,252.46,263.53,253.97,261.02z"/>
	<path class="st56" d="M308.1,279.97c1.34,0.65,2.68,1.3,4.02,1.95c-1.08,0.2-2.34-0.18-3.09,1.02c-1.45,1.43-3.06,0.81-4.64,0.34
		c-13.48-3.95-26.93-7.96-40.6-11.22c-1.45-0.34-2.9-0.77-3.7-2.22c-1.76-1.61-4.34-0.29-6.15-1.73c1.26-0.62,2.92,0.29,4-1.02
		c1.04-1.28,2.45-1.25,3.89-1.1c13.73,3.73,27.52,7.21,41.17,11.25C304.87,277.8,306.93,278.06,308.1,279.97z"/>
	<path class="st55" d="M269.78,231.91c-3.92,7.23-7.82,14.47-11.79,21.68c-0.84,1.53-1.2,3.45-3.05,4.27
		c1.5-6.32,5.58-11.42,8.17-17.23c0.65-1.46,1.36-2.89,2.48-5.29c-3.28,2.03-2.71,5.9-5.84,6.54c3.37-6.46,6.72-12.92,10.14-19.36
		c0.76-1.43,1.73-3.47,3.64-2.49c2.3,1.18,0.18,2.84-0.34,4.18C272.16,226.82,270.92,229.35,269.78,231.91z"/>
	<path class="st57" d="M261.86,267.28c-1.31-0.06-2.61-0.13-3.92-0.19c-0.67-0.35-1.35-0.7-2.02-1.05c2.6-2.3,5.79-2.84,9.09-3.11
		C265.24,265.3,262.37,265.43,261.86,267.28z"/>
	<path class="st52" d="M319.06,239.04c-0.98-6.81-4.53-12.42-8.42-17.84c-2.87-4.01-6.42-7.65-6.71-12.98
		c-0.11-2.11-1.63-1.99-3.14-2.33c-7.21-1.61-14.54-0.19-21.78-0.96c6.68-1.45,13.43-1.11,20.09-0.26
		c9.1,1.16,18.33,1.91,27.04,5.19c-0.11,0.52-1.11,0.89-0.85,1.04c3.51,2.01,6.07,5.01,8.42,8.15c1.35,1.8,2.5,2.44,4.34,0.93
		c0.35,0.36,0.7,0.72,1.05,1.08c0.5,0.78,0.28,1.58,0.05,2.36C337.47,229.11,325.36,238.52,319.06,239.04z"/>
	<path class="st58" d="M338.06,219.97c-0.44,1.34-0.33,3.36-2.09,3.39c-0.85,0.01-1.91-1.58-2.54-2.65
		c-1.97-3.3-5.02-5.58-7.55-8.34c-0.87-0.95-2.3-1.94,0.27-2.51c1.76,1.22,3.64,2.14,5.85,2.14
		C334.53,214.26,338.01,215.8,338.06,219.97z"/>
	<path class="st59" d="M210.04,265.48c-0.94,2.82-2.87,4.9-5.98,5.72c-1.03,0.27-2.19-0.09-2.06-1.37c0.33-3.33,2.39-5.33,5.55-6.11
		C208.69,263.43,209.91,263.59,210.04,265.48z"/>
	<path class="st60" d="M260.09,269.84c14.91,3.26,29.53,7.61,44.15,11.96c1.57,0.47,3.2,0.76,4.8,1.13c0.67,0.41,1.33,0.81,2,1.22
		c1.14,5.44-3.87,7.27-6.7,8.82c-16.97,9.3-40.71,3.58-47.27-19.44C256.23,270.6,257.38,269.68,260.09,269.84z"/>
	<path class="st61" d="M170.88,317.42c-0.28,2.31-1.68,3.59-4.23,3.58c-2.42-0.01-3.65-1.26-3.6-3.67c0.06-2.64,1.8-4.03,4.11-3.92
		C169.12,313.49,170.92,314.67,170.88,317.42z"/>
	<path class="st62" d="M220,317.06c0,2.99-1.35,4.01-3.75,3.95c-2.34-0.06-3.88-1.3-3.94-3.53c-0.06-2.43,1.55-4.14,3.96-4.19
		C218.85,313.23,219.92,315.11,220,317.06z"/>
	<path class="st41" d="M318.92,242.92c1.03-0.63,2.05-1.26,3.08-1.89c0.82-2.53,3.3-3.15,5.21-4.28c4.05-2.38,7.31-5.95,11.76-7.71
		c-0.3,2.7,1.17,4.92,1.95,7.33c0.69,2.11,1.92,0.97,3.04,0.69c-1.68,5.57-1.68,5.57-10.73,7.11c0.24,0.43,0.39,1.08,0.67,1.13
		c5.74,1.12,5.76,1.11,3.6,6.5c-1.17,2.92-2.39,5.82-3.6,8.72c-1.47,3.54-6.74,6.25-10.93,5.64c-0.84,0.12-1.34-0.35-1.72-1.01
		c-0.45-4.37-0.45-4.37,2.91-5.87c-1.33-0.63-2.98,0.15-4.16-1.01C321.01,253.07,320.04,247.99,318.92,242.92z"/>
	<path class="st63" d="M338.98,229.05c-4.78,5.24-10.71,8.85-16.97,11.98c-1.14-0.1-2.39,0.1-3.09-1.18
		c0.06-0.27,0.11-0.54,0.14-0.82c6.42-3.39,12.61-7.04,17.23-12.91c1.26-1.6,2.18-3.23,2.82-5.09c0.67,1.01,1.34,2.02,2.02,3.03
		C341.6,226.24,338.92,227.06,338.98,229.05z"/>
	<path class="st62" d="M439.1,321.01c-2.53-0.16-3.97-1.59-3.99-4.06c-0.01-2.44,1.92-3.57,3.94-3.52c2.31,0.05,3.96,1.44,3.85,4.14
		C442.8,320,441.53,321.12,439.1,321.01z"/>
	<path class="st64" d="M332.06,317.26c-0.02-1.76,0.07-3.41,2.54-3.3c2.24,0.1,3.34,1.22,3.34,3.43c0,2.15-0.98,3.44-3.23,3.57
		C331.86,321.13,332.11,319.09,332.06,317.26z"/>
	<path class="st65" d="M464.97,317.7c0.05-1.75-0.37-3.81,2.48-3.71c1.86,0.07,3.21,0.77,3.3,2.8c0.09,2.27-1.01,3.77-3.31,4.07
		C464.99,321.19,464.94,319.43,464.97,317.7z"/>
	<path class="st66" d="M361.92,317.31c0.09,2.8-1.52,3.75-4.03,3.74c-2.29-0.01-3.77-0.93-3.87-3.42c-0.11-2.67,1.58-4.1,3.83-4.21
		C360.14,313.3,361.86,314.65,361.92,317.31z"/>
	<path class="st67" d="M261.86,267.28c-1.58-3.36,2.33-2.73,3.15-4.35c10.24-3.36,20.47-6.72,30.71-10.08
		c4.05,0.44,7.93,6.97,6.72,11.48c-0.34,1.26-1.09,2.41-1,3.78c-0.25,2.46,1.65,4.05,2.49,6.07c0.91,0.92,2.09,0.87,3.25,0.92
		c1.13,0.05,2.51-0.15,2.7,1.47c0.17,1.46,0.42,3.11-1.77,3.41C292.69,275.74,277.27,271.51,261.86,267.28z"/>
	<path class="st68" d="M303.93,274.17c-2.9-0.4-3.23-2.77-3.81-4.96c1.48-6.6,5.25-9.92,10.73-9.45c2.07,0.18,4.16,0.57,4.64,2.97
		c0.44,2.21-0.93,3.76-2.61,5.01c-1.6,1.2-3.65,1.28-6.2,2.11c6.5,0.3,9.65-2.19,10.2-7.36c0.22-2.05-0.18-4.57,3.13-4.45
		c2.21,0.02,4.57-1.2,6.53,0.7c0.42,0.41,0.56,1.11,0.83,1.67c-0.55,0.24-1.26,0.82-1.64,0.66c-4.95-2.18-3.41,1.76-3.76,3.92
		c-1.93,2.67-0.63,5.23,0.25,7.8c-1.25,2.22-5.24,1.26-5.44,4.68c0.26,0.94,1.02,1.64,1.26,2.59c-2.4,1.33-4.67,0.46-6.27-1.15
		c-1.96-1.96,0.53-3.5,1.34-5.34C309.97,273.78,306.95,273.97,303.93,274.17z"/>
	<path class="st69" d="M321.83,273.11c-3.27-2.42-1.69-5.85-1.62-8.86c0.02-0.7,1.05,0.68,1.76,0.74c0.34,0.39,0.68,0.79,1.02,1.18
		c-0.03,1.55,1.66,1.91,2.16,3.1c0.82,9.01,0.56,9.41-7.11,10.79c-1.09-0.3-2.11-0.68-2.03-2.1
		C317.59,275.91,320.49,275.43,321.83,273.11z"/>
	<path class="st70" d="M320.01,258.04c-2.14,0.97-1.87,2.87-1.79,4.68c0.24,5.27-6.74,10.53-11.87,8.99
		c-1.25-0.37-2.23-1.02-2.14-2.33c0.09-1.28,1.33-1.3,2.31-1.27c2.58,0.09,4.98-0.33,6.8-2.34c0.88-0.97,1.86-2.02,1.09-3.51
		c-0.6-1.17-1.74-1.39-2.93-1.53c-4.86-0.55-8.77,2.35-11.36,8.48c-0.2-1.5-0.14-2.89,0.56-4.34c1.51-3.15-1.53-10.31-4.95-12.02
		c7.73-3.31,15.47-6.62,23.2-9.92C322.33,246.48,322.83,253.43,320.01,258.04z"/>
	<path class="st71" d="M321.83,273.11c0.59,4.65-3.57,3.6-5.81,4.85c-2.32-1.29-1.03-2.26,0.3-3.18
		C317.97,273.62,319.64,272.49,321.83,273.11z"/>
	<path class="st72" d="M308.12,266.04c-0.74-0.16-1.62-0.23-1.45-1.06c0.31-1.53,1.64-1.85,2.96-1.92c0.75-0.04,1.25,0.57,1.03,1.27
		C310.27,265.57,309.22,265.99,308.12,266.04z"/>
</g>
</svg>
